<svg width="192" height="38" viewBox="0 0 192 38" fill="none" xmlns="http://www.w3.org/2000/svg">
<g clip-path="url(#clip0_1_176)">
<path d="M41.3455 8.44763L49.3116 0L38.7657 7.75956L32.7821 12.1616L29.7098 14.4213C28.6779 15.1813 18.3025 22.8127 14.6673 25.4867L13.8168 26.1123C13.6901 26.2061 13.59 26.2796 13.5228 26.3281L13.5009 26.3437C13.4462 26.3844 13.4165 26.4063 13.4165 26.4063L12.8083 26.8535L8.68374 29.8873L0 36.2754L8.82915 33.1368C10.0221 32.713 11.3495 32.9273 12.3471 33.7076C15.5225 36.1972 19.5236 37.6781 23.8717 37.6703C34.158 37.6531 42.6338 29.0381 42.5041 18.739C42.4697 16.0868 41.8849 13.5659 40.8561 11.289C40.4246 10.3351 40.6263 9.2092 41.3455 8.44763ZM23.9671 30.2376C21.675 30.2626 19.5392 29.6011 17.7505 28.4454C17.7412 28.4345 17.1689 27.7589 17.1486 27.1756C17.1267 26.5861 17.5098 26.1295 17.5098 26.1295L32.4679 15.1141C33.3716 14.6653 34.4629 15.1579 34.7178 16.1368C34.9648 17.0845 35.0914 18.079 35.0805 19.1065C35.0164 25.1959 30.0507 30.1703 23.9671 30.2376Z" fill="#5C5C5C" fill-opacity="0.2"/>
<path d="M41.3455 8.44763L49.3116 0L38.7657 7.75956L32.7821 12.1616L29.7098 14.4213C28.6779 15.1813 18.3025 22.8127 14.6673 25.4867L13.8168 26.1123C13.6901 26.2061 13.59 26.2796 13.5228 26.3281L13.5009 26.3437C13.4462 26.3844 13.4165 26.4063 13.4165 26.4063L12.8083 26.8535L8.68374 29.8873L0 36.2754L8.82915 33.1368C10.0221 32.713 11.3495 32.9273 12.3471 33.7076C15.5225 36.1972 19.5236 37.6781 23.8717 37.6703C34.158 37.6531 42.6338 29.0381 42.5041 18.739C42.4697 16.0868 41.8849 13.5659 40.8561 11.289C40.4246 10.3351 40.6263 9.2092 41.3455 8.44763ZM23.9671 30.2376C21.675 30.2626 19.5392 29.6011 17.7505 28.4454C17.7412 28.4345 17.1689 27.7589 17.1486 27.1756C17.1267 26.5861 17.5098 26.1295 17.5098 26.1295L32.4679 15.1141C33.3716 14.6653 34.4629 15.1579 34.7178 16.1368C34.9648 17.0845 35.0914 18.079 35.0805 19.1065C35.0164 25.1959 30.0507 30.1703 23.9671 30.2376Z" fill="url(#paint0_linear_1_176)"/>
<path d="M41.3455 8.44763L49.3116 0L38.7657 7.75956L32.7821 12.1616L29.7098 14.4213C28.6779 15.1813 18.3025 22.8127 14.6673 25.4867L13.8168 26.1123C13.6901 26.2061 13.59 26.2796 13.5228 26.3281L13.5009 26.3437C13.4462 26.3844 13.4165 26.4063 13.4165 26.4063L12.8083 26.8535L8.68374 29.8873L0 36.2754L8.82915 33.1368C10.0221 32.713 11.3495 32.9273 12.3471 33.7076C15.5225 36.1972 19.5236 37.6781 23.8717 37.6703C34.158 37.6531 42.6338 29.0381 42.5041 18.739C42.4697 16.0868 41.8849 13.5659 40.8561 11.289C40.4246 10.3351 40.6263 9.2092 41.3455 8.44763ZM23.9671 30.2376C21.675 30.2626 19.5392 29.6011 17.7505 28.4454C17.7412 28.4345 17.1689 27.7589 17.1486 27.1756C17.1267 26.5861 17.5098 26.1295 17.5098 26.1295L32.4679 15.1141C33.3716 14.6653 34.4629 15.1579 34.7178 16.1368C34.9648 17.0845 35.0914 18.079 35.0805 19.1065C35.0164 25.1959 30.0507 30.1703 23.9671 30.2376Z" fill="url(#paint1_linear_1_176)"/>
<path d="M38.1278 6.80721C35.5918 3.84538 32.4569 2.2941 30.9982 1.68734C30.5573 1.50907 30.107 1.34487 29.6473 1.19788C19.9504 -1.90157 9.47021 3.40127 6.24625 13.0483C4.41226 18.5357 5.2675 24.2545 8.08338 28.7989L10.7085 26.877L14.1076 24.389L14.2061 24.317C13.5744 23.3209 13.1789 22.3279 12.9662 21.2082C12.9303 21.1159 12.9021 21.0206 12.8834 20.9189C12.5722 19.1534 12.6785 17.2878 13.2789 15.4613C13.3727 15.1751 13.4822 14.8952 13.5994 14.6199C15.2724 10.529 19.2891 7.64697 23.9812 7.64697C27.2551 7.64697 30.132 8.94336 32.1677 11.1577C32.1693 11.1593 32.1677 11.1655 32.1661 11.1702L34.5943 9.39373L38.1278 6.80721Z" fill="url(#paint2_linear_1_176)"/>
<path d="M38.1278 6.80721C35.5918 3.84538 32.4569 2.2941 30.9982 1.68734C30.5573 1.50907 30.107 1.34487 29.6473 1.19788C19.9504 -1.90157 9.47021 3.40127 6.24625 13.0483C4.41226 18.5357 5.2675 24.2545 8.08338 28.7989L10.7085 26.877L14.1076 24.389L14.2061 24.317C13.5744 23.3209 13.1789 22.3279 12.9662 21.2082C12.9303 21.1159 12.9021 21.0206 12.8834 20.9189C12.5722 19.1534 12.6785 17.2878 13.2789 15.4613C13.3727 15.1751 13.4822 14.8952 13.5994 14.6199C15.2724 10.529 19.2891 7.64697 23.9812 7.64697C27.2551 7.64697 30.132 8.94336 32.1677 11.1577C32.1693 11.1593 32.1677 11.1655 32.1661 11.1702L34.5943 9.39373L38.1278 6.80721Z" fill="url(#paint3_linear_1_176)"/>
<path d="M38.1278 6.80721C35.5918 3.84538 32.4569 2.2941 30.9982 1.68734C30.5573 1.50907 30.107 1.34487 29.6473 1.19788C19.9504 -1.90157 9.47021 3.40127 6.24625 13.0483C4.41226 18.5357 5.2675 24.2545 8.08338 28.7989L10.7085 26.877L14.1076 24.389L14.2061 24.317C13.5744 23.3209 13.1789 22.3279 12.9662 21.2082C12.9303 21.1159 12.9021 21.0206 12.8834 20.9189C12.5722 19.1534 12.6785 17.2878 13.2789 15.4613C13.3727 15.1751 13.4822 14.8952 13.5994 14.6199C15.2724 10.529 19.2891 7.64697 23.9812 7.64697C27.2551 7.64697 30.132 8.94336 32.1677 11.1577C32.1693 11.1593 32.1677 11.1655 32.1661 11.1702L34.5943 9.39373L38.1278 6.80721Z" fill="url(#paint4_linear_1_176)"/>
</g>
<path d="M59.9965 24.6464L52.326 24.638L51.0314 27.2402L46.8857 27.2357L54.1006 13.4846L58.2462 13.4892L65.4311 27.2559L61.2854 27.2514L59.9965 24.6464ZM53.6607 21.9558L58.6876 21.9613L56.1897 16.8916L53.6607 21.9558Z" fill="white"/>
<path d="M83.1553 18.2128C83.1545 18.9004 83.0537 19.5345 82.8528 20.1151C82.6519 20.689 82.3276 21.186 81.8798 21.606C81.4388 22.0195 80.8643 22.3426 80.1564 22.5755C79.4485 22.8084 78.5872 22.9243 77.5725 22.9232L71.404 22.9164L71.3993 27.2624L67.6842 27.2583L67.6992 13.4995L77.5828 13.5102C78.5975 13.5114 79.4585 13.6291 80.1659 13.8635C80.8733 14.0913 81.4471 14.4157 81.8872 14.8368C82.3341 15.2511 82.6573 15.7455 82.8569 16.3198C83.0566 16.8942 83.156 17.5252 83.1553 18.2128ZM79.4001 18.2688C79.4004 17.9483 79.354 17.6746 79.2608 17.4475C79.1743 17.2137 79.0276 17.0233 78.8208 16.8762C78.614 16.7291 78.3438 16.622 78.01 16.5549C77.6763 16.4811 77.2658 16.4439 76.7785 16.4434L71.4111 16.4375L71.4072 19.9824L76.7746 19.9883C77.2619 19.9888 77.6725 19.9625 78.0064 19.9095C78.3402 19.8498 78.6107 19.7533 78.8178 19.62C79.0249 19.48 79.172 19.2999 79.259 19.0797C79.3527 18.8595 79.3997 18.5892 79.4001 18.2688Z" fill="white"/>
<path d="M104.042 20.4286C104.04 21.6102 103.822 22.6547 103.387 23.5621C102.952 24.4629 102.331 25.2166 101.522 25.8232C100.714 26.4298 99.7319 26.8894 98.5767 27.2019C97.4281 27.5077 96.1362 27.6599 94.7009 27.6583C93.2656 27.6567 91.9673 27.5018 90.806 27.1934C89.6514 26.8784 88.6673 26.4167 87.8535 25.8083C87.0397 25.1999 86.413 24.4449 85.9734 23.5432C85.5337 22.6348 85.3146 21.5898 85.3159 20.4081C85.3172 19.2265 85.5386 18.1853 85.9802 17.2846C86.4218 16.3771 87.0501 15.6201 87.8652 15.0135C88.6804 14.4069 89.6655 13.9507 90.8208 13.6448C91.9827 13.3323 93.2813 13.1769 94.7166 13.1784C96.1519 13.18 97.4436 13.3383 98.5914 13.6533C99.746 13.9617 100.727 14.42 101.534 15.0284C102.341 15.6368 102.961 16.3952 103.394 17.3036C103.827 18.2053 104.043 19.2469 104.042 20.4286ZM100.286 20.4245C100.287 19.9104 100.204 19.3996 100.038 18.8921C99.8781 18.3779 99.5882 17.9169 99.168 17.5092C98.7546 17.1016 98.1875 16.7705 97.4668 16.516C96.7461 16.2616 95.8283 16.1337 94.7134 16.1325C93.9657 16.1317 93.3081 16.191 92.7405 16.3106C92.173 16.4235 91.6821 16.5831 91.268 16.7896C90.8539 16.9961 90.5064 17.2394 90.2258 17.5195C89.9451 17.7929 89.7211 18.0897 89.5539 18.41C89.3866 18.7236 89.2661 19.0539 89.1923 19.401C89.1252 19.7414 89.0914 20.0785 89.091 20.4123C89.0907 20.7527 89.1237 21.0966 89.1901 21.4438C89.2631 21.791 89.3829 22.1249 89.5495 22.4455C89.716 22.7595 89.9393 23.0535 90.2194 23.3275C90.4995 23.6015 90.8464 23.8422 91.2601 24.0496C91.6737 24.2503 92.1642 24.4111 92.7316 24.5319C93.2989 24.646 93.9564 24.7034 94.7041 24.7043C95.8189 24.7055 96.737 24.5796 97.4583 24.3267C98.1795 24.0738 98.7473 23.744 99.1617 23.3372C99.5827 22.9305 99.8736 22.4735 100.034 21.9663C100.202 21.4524 100.286 20.9385 100.286 20.4245Z" fill="white"/>
<path d="M107.419 27.3017L107.434 13.5428L111.149 13.5468L111.137 24.2916L121.181 24.3025L121.178 27.3167L107.419 27.3017Z" fill="white"/>
<path d="M124.162 27.3199L124.177 13.561L127.892 13.5651L127.88 24.3098L137.924 24.3208L137.921 27.3349L124.162 27.3199Z" fill="white"/>
<path d="M158.717 20.4882C158.715 21.6698 158.497 22.7143 158.062 23.6218C157.627 24.5225 157.006 25.2762 156.197 25.8828C155.389 26.4894 154.407 26.949 153.252 27.2615C152.103 27.5674 150.811 27.7195 149.376 27.7179C147.941 27.7164 146.642 27.5614 145.481 27.253C144.326 26.938 143.342 26.4763 142.528 25.8679C141.715 25.2595 141.088 24.5045 140.648 23.6028C140.209 22.6944 139.99 21.6494 139.991 20.4677C139.992 19.2861 140.214 18.2449 140.655 17.3442C141.097 16.4368 141.725 15.6797 142.54 15.0731C143.355 14.4665 144.341 14.0103 145.496 13.7045C146.658 13.392 147.956 13.2365 149.392 13.2381C150.827 13.2396 152.119 13.3979 153.266 13.7129C154.421 14.0213 155.402 14.4796 156.209 15.088C157.016 15.6964 157.636 16.4548 158.069 17.3632C158.502 18.2649 158.718 19.3065 158.717 20.4882ZM154.961 20.4841C154.962 19.97 154.879 19.4592 154.713 18.9517C154.553 18.4375 154.263 17.9765 153.843 17.5689C153.43 17.1612 152.862 16.8301 152.142 16.5756C151.421 16.3212 150.503 16.1933 149.388 16.1921C148.641 16.1913 147.983 16.2507 147.416 16.3702C146.848 16.4831 146.357 16.6428 145.943 16.8493C145.529 17.0558 145.181 17.299 144.901 17.5791C144.62 17.8525 144.396 18.1494 144.229 18.4696C144.062 18.7832 143.941 19.1135 143.867 19.4606C143.8 19.801 143.766 20.1381 143.766 20.4719C143.766 20.8123 143.799 21.1562 143.865 21.5034C143.938 21.8506 144.058 22.1845 144.224 22.5052C144.391 22.8191 144.614 23.1131 144.894 23.3871C145.175 23.6611 145.521 23.9018 145.935 24.1092C146.349 24.3099 146.839 24.4707 147.407 24.5915C147.974 24.7056 148.631 24.7631 149.379 24.7639C150.494 24.7651 151.412 24.6392 152.133 24.3863C152.855 24.1335 153.422 23.8036 153.837 23.3968C154.258 22.9901 154.549 22.5331 154.709 22.0259C154.877 21.5121 154.961 20.9981 154.961 20.4841Z" fill="white"/>
<path d="M172.901 24.6693L172.899 27.3731L169.213 27.369L169.216 24.6653L160.454 24.6558L160.458 21.7218L168.347 13.6092L172.914 13.6142L172.905 21.7353L176.029 21.7387L176.026 24.6728L172.901 24.6693ZM169.225 16.8446L164.483 21.7261L169.22 21.7313L169.225 16.8446Z" fill="white"/>
<path d="M177.465 27.378L177.467 24.9147C179.257 24.0955 180.81 23.3628 182.126 22.7167C183.449 22.0706 184.541 21.4843 185.403 20.9579C186.271 20.4314 186.916 19.9515 187.337 19.518C187.758 19.0778 187.969 18.6542 187.969 18.2469C187.969 18.1334 187.956 18.0066 187.93 17.8664C187.91 17.7195 187.856 17.5726 187.77 17.4256C187.69 17.272 187.57 17.1216 187.41 16.9746C187.25 16.8275 187.03 16.7005 186.749 16.5933C186.469 16.4795 186.122 16.389 185.708 16.3218C185.294 16.2479 184.794 16.2107 184.206 16.21C183.665 16.2095 183.101 16.2456 182.514 16.3184C181.926 16.3845 181.345 16.4806 180.771 16.6068C180.197 16.7331 179.643 16.886 179.108 17.0657C178.574 17.2453 178.083 17.4484 177.636 17.6749L177.639 14.4004C178.561 14.081 179.582 13.8151 180.704 13.6027C181.833 13.3836 183.021 13.2747 184.269 13.2761C185.438 13.2774 186.482 13.382 187.403 13.5899C188.324 13.7979 189.102 14.0991 189.736 14.4937C190.376 14.8816 190.863 15.3561 191.196 15.9173C191.536 16.4717 191.706 17.0994 191.705 17.8004C191.704 18.1876 191.661 18.5514 191.573 18.8917C191.493 19.2255 191.346 19.5524 191.132 19.8726C190.918 20.1928 190.627 20.5163 190.259 20.843C189.899 21.163 189.438 21.503 188.876 21.8629C188.322 22.2228 187.657 22.6126 186.882 23.0323C186.108 23.4454 185.206 23.905 184.177 24.4113L191.988 24.4198L191.985 27.3939L177.465 27.378Z" fill="white"/>
<defs>
<linearGradient id="paint0_linear_1_176" x1="8.51824e-07" y1="-0.784799" x2="38.9228" y2="42.4339" gradientUnits="userSpaceOnUse">
<stop stop-color="#E890E7"/>
<stop offset="0.489583" stop-color="#A070DE"/>
<stop offset="1" stop-color="#87B5F1"/>
</linearGradient>
<linearGradient id="paint1_linear_1_176" x1="0" y1="18.8352" x2="49.3116" y2="18.8352" gradientUnits="userSpaceOnUse">
<stop stop-color="#F368E0"/>
<stop offset="0.494792" stop-color="#5F27CD"/>
<stop offset="1" stop-color="#00D2D3"/>
</linearGradient>
<linearGradient id="paint2_linear_1_176" x1="-4.61478" y1="-12.9902" x2="29.608" y2="25.0074" gradientUnits="userSpaceOnUse">
<stop stop-color="#E890E7"/>
<stop offset="0.4896" stop-color="#A070DE"/>
<stop offset="1" stop-color="#87B5F1"/>
</linearGradient>
<linearGradient id="paint3_linear_1_176" x1="5.2771" y1="-0.280406" x2="34.8643" y2="28.6622" gradientUnits="userSpaceOnUse">
<stop stop-color="#E890E7"/>
<stop offset="0.489583" stop-color="#A070DE"/>
<stop offset="1" stop-color="#87B5F1"/>
</linearGradient>
<linearGradient id="paint4_linear_1_176" x1="5.2771" y1="14.556" x2="38.1278" y2="14.556" gradientUnits="userSpaceOnUse">
<stop stop-color="#F368E0"/>
<stop offset="0.494792" stop-color="#5F27CD"/>
<stop offset="1" stop-color="#00D2D3"/>
</linearGradient>
<clipPath id="clip0_1_176">
<rect width="49.3116" height="37.6718" fill="white"/>
</clipPath>
</defs>
</svg>
