<svg width="66" height="50" viewBox="0 0 66 50" fill="none" xmlns="http://www.w3.org/2000/svg">
<g clip-path="url(#clip0_14_98)">
<path d="M54.6973 11.1756L65.2359 0L51.2844 10.2654L43.3686 16.089L39.3041 19.0784C37.939 20.0839 24.2129 30.1796 19.4038 33.7172L18.2786 34.5448C18.1111 34.6689 17.9787 34.7661 17.8898 34.8303L17.8608 34.8509C17.7884 34.9047 17.7491 34.9337 17.7491 34.9337L16.9445 35.5254L11.488 39.5388L0 47.9899L11.6804 43.8378C13.2586 43.2772 15.0147 43.5606 16.3343 44.5929C20.5353 47.8864 25.8284 49.8456 31.5806 49.8352C45.1888 49.8125 56.4017 38.4155 56.23 24.7904C56.1845 21.2817 55.4109 17.9468 54.0499 14.9346C53.479 13.6727 53.7458 12.1831 54.6973 11.1756ZM31.7068 40.0022C28.6745 40.0354 25.849 39.1602 23.4828 37.6314C23.4704 37.6169 22.7133 36.7232 22.6864 35.9515C22.6575 35.1716 23.1642 34.5675 23.1642 34.5675L42.9528 19.9949C44.1484 19.4012 45.5921 20.0528 45.9293 21.3479C46.2561 22.6016 46.4236 23.9174 46.4091 25.2766C46.3243 33.3324 39.755 39.9133 31.7068 40.0022Z" fill="#5C5C5C" fill-opacity="0.2"/>
<path d="M54.6973 11.1756L65.2359 0L51.2844 10.2654L43.3686 16.089L39.3041 19.0784C37.939 20.0839 24.2129 30.1796 19.4038 33.7172L18.2786 34.5448C18.1111 34.6689 17.9787 34.7661 17.8898 34.8303L17.8608 34.8509C17.7884 34.9047 17.7491 34.9337 17.7491 34.9337L16.9445 35.5254L11.488 39.5388L0 47.9899L11.6804 43.8378C13.2586 43.2772 15.0147 43.5606 16.3343 44.5929C20.5353 47.8864 25.8284 49.8456 31.5806 49.8352C45.1888 49.8125 56.4017 38.4155 56.23 24.7904C56.1845 21.2817 55.4109 17.9468 54.0499 14.9346C53.479 13.6727 53.7458 12.1831 54.6973 11.1756ZM31.7068 40.0022C28.6745 40.0354 25.849 39.1602 23.4828 37.6314C23.4704 37.6169 22.7133 36.7232 22.6864 35.9515C22.6575 35.1716 23.1642 34.5675 23.1642 34.5675L42.9528 19.9949C44.1484 19.4012 45.5921 20.0528 45.9293 21.3479C46.2561 22.6016 46.4236 23.9174 46.4091 25.2766C46.3243 33.3324 39.755 39.9133 31.7068 40.0022Z" fill="url(#paint0_linear_14_98)"/>
<path d="M54.6973 11.1756L65.2359 0L51.2844 10.2654L43.3686 16.089L39.3041 19.0784C37.939 20.0839 24.2129 30.1796 19.4038 33.7172L18.2786 34.5448C18.1111 34.6689 17.9787 34.7661 17.8898 34.8303L17.8608 34.8509C17.7884 34.9047 17.7491 34.9337 17.7491 34.9337L16.9445 35.5254L11.488 39.5388L0 47.9899L11.6804 43.8378C13.2586 43.2772 15.0147 43.5606 16.3343 44.5929C20.5353 47.8864 25.8284 49.8456 31.5806 49.8352C45.1888 49.8125 56.4017 38.4155 56.23 24.7904C56.1845 21.2817 55.4109 17.9468 54.0499 14.9346C53.479 13.6727 53.7458 12.1831 54.6973 11.1756ZM31.7068 40.0022C28.6745 40.0354 25.849 39.1602 23.4828 37.6314C23.4704 37.6169 22.7133 36.7232 22.6864 35.9515C22.6575 35.1716 23.1642 34.5675 23.1642 34.5675L42.9528 19.9949C44.1484 19.4012 45.5921 20.0528 45.9293 21.3479C46.2561 22.6016 46.4236 23.9174 46.4091 25.2766C46.3243 33.3324 39.755 39.9133 31.7068 40.0022Z" fill="url(#paint1_linear_14_98)"/>
<path d="M50.4405 9.0054C47.0855 5.0871 42.9383 3.03486 41.0085 2.23216C40.4252 1.99632 39.8295 1.7791 39.2214 1.58463C26.393 -2.51573 12.5284 4.49956 8.26333 17.262C5.83707 24.5214 6.9685 32.087 10.6937 38.0989L14.1666 35.5563L18.6633 32.2649L18.7936 32.1697C17.958 30.8519 17.4347 29.5382 17.1534 28.0569C17.1058 27.9349 17.0686 27.8087 17.0438 27.6742C16.6321 25.3386 16.7728 22.8705 17.5671 20.4541C17.6912 20.0755 17.836 19.7052 17.9911 19.3411C20.2043 13.9291 25.5181 10.1163 31.7254 10.1163C36.0567 10.1163 39.8626 11.8314 42.5556 14.7608C42.5577 14.7629 42.5556 14.7711 42.5536 14.7773L45.7658 12.4272L50.4405 9.0054Z" fill="url(#paint2_linear_14_98)"/>
<path d="M50.4405 9.0054C47.0855 5.0871 42.9383 3.03486 41.0085 2.23216C40.4252 1.99632 39.8295 1.7791 39.2214 1.58463C26.393 -2.51573 12.5284 4.49956 8.26333 17.262C5.83707 24.5214 6.9685 32.087 10.6937 38.0989L14.1666 35.5563L18.6633 32.2649L18.7936 32.1697C17.958 30.8519 17.4347 29.5382 17.1534 28.0569C17.1058 27.9349 17.0686 27.8087 17.0438 27.6742C16.6321 25.3386 16.7728 22.8705 17.5671 20.4541C17.6912 20.0755 17.836 19.7052 17.9911 19.3411C20.2043 13.9291 25.5181 10.1163 31.7254 10.1163C36.0567 10.1163 39.8626 11.8314 42.5556 14.7608C42.5577 14.7629 42.5556 14.7711 42.5536 14.7773L45.7658 12.4272L50.4405 9.0054Z" fill="url(#paint3_linear_14_98)"/>
<path d="M50.4405 9.0054C47.0855 5.0871 42.9383 3.03486 41.0085 2.23216C40.4252 1.99632 39.8295 1.7791 39.2214 1.58463C26.393 -2.51573 12.5284 4.49956 8.26333 17.262C5.83707 24.5214 6.9685 32.087 10.6937 38.0989L14.1666 35.5563L18.6633 32.2649L18.7936 32.1697C17.958 30.8519 17.4347 29.5382 17.1534 28.0569C17.1058 27.9349 17.0686 27.8087 17.0438 27.6742C16.6321 25.3386 16.7728 22.8705 17.5671 20.4541C17.6912 20.0755 17.836 19.7052 17.9911 19.3411C20.2043 13.9291 25.5181 10.1163 31.7254 10.1163C36.0567 10.1163 39.8626 11.8314 42.5556 14.7608C42.5577 14.7629 42.5556 14.7711 42.5536 14.7773L45.7658 12.4272L50.4405 9.0054Z" fill="url(#paint4_linear_14_98)"/>
</g>
<defs>
<linearGradient id="paint0_linear_14_98" x1="1.12691e-06" y1="-1.03824" x2="51.4922" y2="56.1372" gradientUnits="userSpaceOnUse">
<stop stop-color="#E890E7"/>
<stop offset="0.489583" stop-color="#A070DE"/>
<stop offset="1" stop-color="#87B5F1"/>
</linearGradient>
<linearGradient id="paint1_linear_14_98" x1="0" y1="24.9176" x2="65.2359" y2="24.9176" gradientUnits="userSpaceOnUse">
<stop stop-color="#F368E0"/>
<stop offset="0.494792" stop-color="#5F27CD"/>
<stop offset="1" stop-color="#00D2D3"/>
</linearGradient>
<linearGradient id="paint2_linear_14_98" x1="-6.10509" y1="-17.1853" x2="39.1694" y2="33.083" gradientUnits="userSpaceOnUse">
<stop stop-color="#E890E7"/>
<stop offset="0.4896" stop-color="#A070DE"/>
<stop offset="1" stop-color="#87B5F1"/>
</linearGradient>
<linearGradient id="paint3_linear_14_98" x1="6.9812" y1="-0.371039" x2="46.1231" y2="37.9181" gradientUnits="userSpaceOnUse">
<stop stop-color="#E890E7"/>
<stop offset="0.489583" stop-color="#A070DE"/>
<stop offset="1" stop-color="#87B5F1"/>
</linearGradient>
<linearGradient id="paint4_linear_14_98" x1="6.9812" y1="19.2565" x2="50.4405" y2="19.2565" gradientUnits="userSpaceOnUse">
<stop stop-color="#F368E0"/>
<stop offset="0.494792" stop-color="#5F27CD"/>
<stop offset="1" stop-color="#00D2D3"/>
</linearGradient>
<clipPath id="clip0_14_98">
<rect width="65.2359" height="49.8373" fill="white"/>
</clipPath>
</defs>
</svg>
