<svg width="17" height="16" viewBox="0 0 17 16" fill="none" xmlns="http://www.w3.org/2000/svg">
<path opacity="0.3" d="M11.25 13.5222C10.2682 13.985 9.18323 14.2249 8.08335 14.2222C6.76815 14.2217 5.47906 13.8795 4.36048 13.2339C3.2419 12.5882 2.33799 11.6647 1.75002 10.5667C1.25413 9.65034 0.997156 8.63766 1.00002 7.6111V7.22221C1.09585 5.60106 1.82899 4.06985 3.05907 2.92178C4.28915 1.7737 5.92973 1.08944 7.66668 1M11.25 1.7C12.4265 2.24877 13.416 3.09241 14.1077 4.13642C14.7995 5.18043 15.1662 6.38358 15.1667 7.6111C15.1695 8.63766 14.9126 9.65034 14.4167 10.5667L16 15L13.5 14.2222" stroke="white" stroke-width="1.5" stroke-linecap="round" stroke-linejoin="round"/>
</svg>
